<svg fill="#000000" xmlns="http://www.w3.org/2000/svg"  viewBox="0 0 16 16" width="16px" height="16px"><path d="M 8 1 C 6.351563 1 5 2.351563 5 4 L 3 4 C 2.734375 4 2.515625 4.207031 2.5 4.472656 L 2 13.472656 C 1.992188 13.609375 2.042969 13.746094 2.136719 13.84375 C 2.230469 13.945313 2.363281 14 2.5 14 L 13.5 14 C 13.636719 14 13.769531 13.945313 13.863281 13.84375 C 13.957031 13.746094 14.007813 13.609375 14 13.472656 L 13.5 4.472656 C 13.484375 4.207031 13.265625 4 13 4 L 11 4 C 11 2.351563 9.648438 1 8 1 Z M 8 2 C 9.101563 2 10 2.898438 10 4 L 6 4 C 6 2.898438 6.898438 2 8 2 Z M 3.472656 5 L 5 5 L 5 7 L 6 7 L 6 5 L 10 5 L 10 7 L 11 7 L 11 5 L 12.527344 5 L 12.96875 13 L 3.03125 13 Z"/></svg>