<svg fill="#000000" xmlns="http://www.w3.org/2000/svg"  viewBox="0 0 16 16" width="16px" height="16px"><path d="M 4.5 2 C 3.125 2 2 3.125 2 4.5 C 2 5.875 3.125 7 4.5 7 C 5.875 7 7 5.875 7 4.5 C 7 3.125 5.875 2 4.5 2 Z M 9.5 2 C 9.222656 2 9 2.222656 9 2.5 L 9 6.5 C 9 6.777344 9.222656 7 9.5 7 L 13.5 7 C 13.777344 7 14 6.777344 14 6.5 L 14 2.5 C 14 2.222656 13.777344 2 13.5 2 Z M 4.5 3 C 5.335938 3 6 3.664063 6 4.5 C 6 5.335938 5.335938 6 4.5 6 C 3.664063 6 3 5.335938 3 4.5 C 3 3.664063 3.664063 3 4.5 3 Z M 10 3 L 13 3 L 13 6 L 10 6 Z M 4.5 9 C 3.125 9 2 10.125 2 11.5 C 2 12.875 3.125 14 4.5 14 C 5.875 14 7 12.875 7 11.5 C 7 10.125 5.875 9 4.5 9 Z M 11.5 9 C 10.125 9 9 10.125 9 11.5 C 9 12.875 10.125 14 11.5 14 C 12.875 14 14 12.875 14 11.5 C 14 10.125 12.875 9 11.5 9 Z M 4.5 10 C 5.335938 10 6 10.664063 6 11.5 C 6 12.335938 5.335938 13 4.5 13 C 3.664063 13 3 12.335938 3 11.5 C 3 10.664063 3.664063 10 4.5 10 Z M 11.5 10 C 12.335938 10 13 10.664063 13 11.5 C 13 12.335938 12.335938 13 11.5 13 C 10.664063 13 10 12.335938 10 11.5 C 10 10.664063 10.664063 10 11.5 10 Z"/></svg>