<svg fill="#000000" xmlns="http://www.w3.org/2000/svg"  viewBox="0 0 16 16" width="16px" height="16px"><path d="M 5 2 C 4.4534686 2 4 2.4534686 4 3 L 4 6 C 4 6.1851958 4.0661349 6.3501988 4.15625 6.5 C 4.0661349 6.6498012 4 6.8148042 4 7 L 4 10 C 4 10.546531 4.4534686 11 5 11 L 13 11 C 13.546531 11 14 10.546531 14 10 L 14 7 C 14 6.8148042 13.933865 6.6498012 13.84375 6.5 C 13.933865 6.3501988 14 6.1851958 14 6 L 14 3 C 14 2.4534686 13.546531 2 13 2 L 5 2 z M 1 3 L 1 4 L 1.5 4 C 1.7814686 4 2 4.2185314 2 4.5 L 2 11 C 2 12.098531 2.9014686 13 4 13 L 4.09375 13 C 4.0371318 13.157248 4 13.324336 4 13.5 C 4 14.322505 4.6774952 15 5.5 15 C 6.3225048 15 7 14.322505 7 13.5 C 7 13.324336 6.9628682 13.157248 6.90625 13 L 10.09375 13 C 10.037132 13.157248 10 13.324336 10 13.5 C 10 14.322505 10.677495 15 11.5 15 C 12.322505 15 13 14.322505 13 13.5 C 13 13.324336 12.962868 13.157248 12.90625 13 L 14 13 L 14 12 L 4 12 C 3.4425314 12 3 11.557469 3 11 L 3 4.5 C 3 3.6774686 2.3225314 3 1.5 3 L 1 3 z M 5 3 L 13 3 L 13 6 L 5 6 L 5 3 z M 5 7 L 13 7 L 13 10 L 5 10 L 5 7 z M 5.5 13 C 5.7820647 13 6 13.217935 6 13.5 C 6 13.782065 5.7820647 14 5.5 14 C 5.2179353 14 5 13.782065 5 13.5 C 5 13.217935 5.2179353 13 5.5 13 z M 11.5 13 C 11.782065 13 12 13.217935 12 13.5 C 12 13.782065 11.782065 14 11.5 14 C 11.217935 14 11 13.782065 11 13.5 C 11 13.217935 11.217935 13 11.5 13 z"/></svg>