<svg fill="#000000" xmlns="http://www.w3.org/2000/svg"  viewBox="0 0 16 16" width="16px" height="16px"><path d="M 2.5 1 C 1.710938 1 1 1.582031 1 2.375 L 1 4.625 C 1 5.417969 1.710938 6 2.5 6 L 3.5 6 C 4.289063 6 5 5.417969 5 4.625 L 5 4 L 6 4 L 6 4.625 C 6 5.417969 6.710938 6 7.5 6 L 8.5 6 C 9.289063 6 10 5.417969 10 4.625 L 10 4 L 11.5 4 C 11.78125 4 12 4.21875 12 4.5 L 12 6 L 11.5 6 C 10.675781 6 10 6.675781 10 7.5 L 10 8.5 C 10 9.324219 10.675781 10 11.5 10 L 12 10 L 12 11.5 C 12 11.78125 11.78125 12 11.5 12 L 10 12 L 10 11.375 C 10 10.582031 9.289063 10 8.5 10 L 7.5 10 C 6.710938 10 6 10.582031 6 11.375 L 6 12 L 5 12 L 5 11.375 C 5 10.582031 4.289063 10 3.5 10 L 2.5 10 C 1.710938 10 1 10.582031 1 11.375 L 1 13.625 C 1 14.417969 1.710938 15 2.5 15 L 3.5 15 C 4.289063 15 5 14.417969 5 13.625 L 5 13 L 6 13 L 6 13.625 C 6 14.417969 6.710938 15 7.5 15 L 8.5 15 C 9.289063 15 10 14.417969 10 13.625 L 10 13 L 11.5 13 C 12.324219 13 13 12.324219 13 11.5 L 13 10 L 13.5 10 C 14.324219 10 15 9.324219 15 8.5 L 15 7.5 C 15 6.675781 14.324219 6 13.5 6 L 13 6 L 13 4.5 C 13 3.675781 12.324219 3 11.5 3 L 10 3 L 10 2.375 C 10 1.582031 9.289063 1 8.5 1 L 7.5 1 C 6.710938 1 6 1.582031 6 2.375 L 6 3 L 5 3 L 5 2.375 C 5 1.582031 4.289063 1 3.5 1 Z M 2.5 2 L 3.5 2 C 3.816406 2 4 2.203125 4 2.375 L 4 4.625 C 4 4.796875 3.816406 5 3.5 5 L 2.5 5 C 2.183594 5 2 4.796875 2 4.625 L 2 2.375 C 2 2.203125 2.183594 2 2.5 2 Z M 7.5 2 L 8.5 2 C 8.816406 2 9 2.203125 9 2.375 L 9 4.625 C 9 4.796875 8.816406 5 8.5 5 L 7.5 5 C 7.183594 5 7 4.796875 7 4.625 L 7 2.375 C 7 2.203125 7.183594 2 7.5 2 Z M 11.5 7 L 13.5 7 C 13.78125 7 14 7.21875 14 7.5 L 14 8.5 C 14 8.78125 13.78125 9 13.5 9 L 11.5 9 C 11.21875 9 11 8.78125 11 8.5 L 11 7.5 C 11 7.21875 11.21875 7 11.5 7 Z M 2.5 11 L 3.5 11 C 3.816406 11 4 11.203125 4 11.375 L 4 13.625 C 4 13.796875 3.816406 14 3.5 14 L 2.5 14 C 2.183594 14 2 13.796875 2 13.625 L 2 11.375 C 2 11.203125 2.183594 11 2.5 11 Z M 7.5 11 L 8.5 11 C 8.816406 11 9 11.203125 9 11.375 L 9 13.625 C 9 13.796875 8.816406 14 8.5 14 L 7.5 14 C 7.183594 14 7 13.796875 7 13.625 L 7 11.375 C 7 11.203125 7.183594 11 7.5 11 Z"/></svg>