<svg fill="#000000" xmlns="http://www.w3.org/2000/svg"  viewBox="0 0 16 16" width="16px" height="16px"><path d="M 7.5 1.941406 L 5.472656 2.953125 L 3 2.015625 L 3 10 L 2.523438 10 C 1.699219 10 1.023438 10.675781 1.023438 11.5 L 1 13.996094 L 2 14.003906 L 2.023438 11.5 C 2.023438 11.21875 2.238281 11 2.523438 11 L 3 11 L 3 13 L 12 13 L 12 11 L 12.5 11 C 12.78125 11 13 11.21875 13 11.5 L 13 14 L 14 14 L 14 11.5 C 14 10.675781 13.324219 10 12.5 10 L 12 10 L 12 2.015625 L 9.527344 2.953125 Z M 7.5 3.058594 L 9.472656 4.046875 L 9.679688 3.96875 L 11 3.464844 L 11 12 L 4 12 L 4 3.464844 L 5.527344 4.046875 Z M 5 6 L 5 7 L 7.992188 7.007813 L 7.992188 6.007813 Z M 9.003906 6 L 8.996094 7 L 9.996094 7.007813 L 10.003906 6.007813 Z M 5 9 L 5 10 L 8 10 L 8 9 Z M 9 9 L 9 10 L 10 10 L 10 9 Z"/></svg>