<svg fill="#000000" xmlns="http://www.w3.org/2000/svg"  viewBox="0 0 16 16" width="16px" height="16px"><path d="M 2.5 2 C 1.675781 2 1 2.675781 1 3.5 L 1 9.5 C 1 10.324219 1.675781 11 2.5 11 L 3 11 L 3 12.5 C 3 13.324219 3.675781 14 4.5 14 L 13.5 14 C 14.324219 14 15 13.324219 15 12.5 L 15 6.5 C 15 5.675781 14.324219 5 13.5 5 L 13 5 L 13 3.5 C 13 2.675781 12.324219 2 11.5 2 Z M 2.5 3 L 11.5 3 C 11.78125 3 12 3.21875 12 3.5 L 12 4 L 2 4 L 2 3.5 C 2 3.21875 2.21875 3 2.5 3 Z M 2 5 L 12 5 L 12 9.5 C 12 9.78125 11.78125 10 11.5 10 L 2.5 10 C 2.21875 10 2 9.78125 2 9.5 Z M 13 6 L 13.5 6 C 13.78125 6 14 6.21875 14 6.5 L 14 7 L 13 7 Z M 13 8 L 14 8 L 14 12.5 C 14 12.78125 13.78125 13 13.5 13 L 4.5 13 C 4.21875 13 4 12.78125 4 12.5 L 4 11 L 11.5 11 C 12.324219 11 13 10.324219 13 9.5 Z"/></svg>