<svg fill="#000000" xmlns="http://www.w3.org/2000/svg"  viewBox="0 0 16 16" width="16px" height="16px"><path d="M 4.492188 2 C 4.363281 2.003906 4.238281 2.054688 4.148438 2.148438 L 2.148438 4.148438 C 1.953125 4.339844 1.953125 4.660156 2.148438 4.851563 L 5.277344 7.984375 L 3.4375 9.859375 L 2.085938 13.917969 L 6.140625 12.5625 L 6.226563 12.484375 L 8.015625 10.722656 L 11.144531 13.855469 C 11.339844 14.046875 11.660156 14.046875 11.855469 13.855469 L 13.855469 11.855469 C 14.046875 11.660156 14.046875 11.339844 13.855469 11.144531 L 10.746094 8.039063 L 13.410156 5.414063 L 13.414063 5.414063 C 14.191406 4.636719 14.191406 3.363281 13.414063 2.585938 C 13.027344 2.199219 12.511719 2.003906 12 2.003906 C 11.488281 2.003906 10.972656 2.195313 10.585938 2.585938 L 10.582031 2.585938 L 7.960938 5.253906 L 4.851563 2.148438 C 4.757813 2.050781 4.628906 1.996094 4.492188 2 Z M 4.5 3.207031 L 5.292969 4 L 4.648438 4.648438 L 5.351563 5.351563 L 6 4.707031 L 7.257813 5.96875 L 5.980469 7.273438 L 3.207031 4.5 Z M 10.449219 4.15625 L 11.84375 5.554688 L 5.609375 11.6875 L 3.664063 12.335938 L 4.3125 10.394531 Z M 10.03125 8.742188 L 11.292969 10 L 10.644531 10.644531 L 11.355469 11.355469 L 12 10.707031 L 12.792969 11.5 L 11.5 12.792969 L 8.726563 10.019531 Z"/></svg>