<svg fill="#000000" xmlns="http://www.w3.org/2000/svg"  viewBox="0 0 16 16" width="16px" height="16px"><path d="M 7.5 1 C 6.125 1 5 2.125 5 3.5 C 5 4.703125 5.863281 5.714844 7 5.949219 L 7 8 L 1 8 L 1 11.089844 C 0.402344 11.300781 0 11.863281 0 12.5 C 0 13.328125 0.671875 14 1.5 14 C 2.328125 14 3 13.328125 3 12.5 C 3 11.863281 2.597656 11.300781 2 11.089844 L 2 9 L 5 9 L 5 11.089844 C 4.402344 11.300781 4 11.863281 4 12.5 C 4 13.328125 4.671875 14 5.5 14 C 6.328125 14 7 13.328125 7 12.5 C 7 11.863281 6.597656 11.300781 6 11.089844 L 6 9 L 9 9 L 9 11.089844 C 8.402344 11.300781 8 11.863281 8 12.5 C 8 13.328125 8.671875 14 9.5 14 C 10.328125 14 11 13.328125 11 12.5 C 11 11.863281 10.597656 11.300781 10 11.089844 L 10 9 L 13 9 L 13 11.089844 C 12.402344 11.300781 12 11.863281 12 12.5 C 12 13.328125 12.671875 14 13.5 14 C 14.328125 14 15 13.328125 15 12.5 C 15 11.863281 14.597656 11.300781 14 11.089844 L 14 8 L 8 8 L 8 5.949219 C 9.136719 5.714844 10 4.703125 10 3.5 C 10 2.125 8.875 1 7.5 1 Z M 7.5 2 C 8.335938 2 9 2.664063 9 3.5 C 9 4.335938 8.335938 5 7.5 5 C 6.664063 5 6 4.335938 6 3.5 C 6 2.664063 6.664063 2 7.5 2 Z"/></svg>