<svg fill="#000000" xmlns="http://www.w3.org/2000/svg"  viewBox="0 0 16 16" width="16px" height="16px"><path d="M 10 0 C 8.105469 0 6.457031 1.0625 5.609375 2.621094 C 4.757813 3.085938 4.050781 3.789063 3.59375 4.648438 C 2.054688 5.5 1 7.121094 1 9 C 1 11.753906 3.246094 14 6 14 C 7.878906 14 9.503906 12.941406 10.359375 11.402344 C 11.210938 10.945313 11.90625 10.246094 12.375 9.398438 C 12.414063 9.378906 12.460938 9.355469 12.5 9.332031 L 12.5 9.328125 C 13.996094 8.464844 15 6.847656 15 5 C 15 2.246094 12.753906 0 10 0 Z M 10 1 C 12.214844 1 14 2.785156 14 5 C 14 6.042969 13.597656 6.980469 12.949219 7.691406 C 12.980469 7.464844 13 7.234375 13 7 C 13 4.246094 10.753906 2 8 2 C 7.765625 2 7.535156 2.019531 7.3125 2.046875 C 8.019531 1.402344 8.960938 1 10 1 Z M 8 3 C 10.214844 3 12 4.785156 12 7 C 12 8.042969 11.597656 8.984375 10.949219 9.695313 C 10.980469 9.464844 11 9.234375 11 9 C 11 6.246094 8.753906 4 6 4 C 5.761719 4 5.53125 4.023438 5.304688 4.054688 C 6.015625 3.402344 6.957031 3 8 3 Z M 6 5 C 8.214844 5 10 6.785156 10 9 C 10 11.214844 8.214844 13 6 13 C 3.785156 13 2 11.214844 2 9 C 2 6.785156 3.785156 5 6 5 Z"/></svg>