<svg fill="#000000" xmlns="http://www.w3.org/2000/svg"  viewBox="0 0 16 16" width="16px" height="16px"><path d="M 4.5 2 C 3.125 2 2 3.125 2 4.5 C 2 5.875 3.125 7 4.5 7 C 5.875 7 7 5.875 7 4.5 C 7 3.125 5.875 2 4.5 2 Z M 11.5 2 C 10.125 2 9 3.125 9 4.5 C 9 5.875 10.125 7 11.5 7 C 12.875 7 14 5.875 14 4.5 C 14 3.125 12.875 2 11.5 2 Z M 4.5 3 C 5.335938 3 6 3.664063 6 4.5 C 6 5.335938 5.335938 6 4.5 6 C 3.664063 6 3 5.335938 3 4.5 C 3 3.664063 3.664063 3 4.5 3 Z M 11.5 3 C 12.335938 3 13 3.664063 13 4.5 C 13 4.734375 12.945313 4.949219 12.851563 5.144531 L 10.855469 3.148438 C 11.050781 3.054688 11.265625 3 11.5 3 Z M 10.148438 3.855469 L 12.144531 5.851563 C 11.949219 5.945313 11.734375 6 11.5 6 C 10.664063 6 10 5.335938 10 4.5 C 10 4.265625 10.054688 4.050781 10.148438 3.855469 Z M 4.5 9 C 3.121094 9 2 10.121094 2 11.5 C 2 12.878906 3.121094 14 4.5 14 C 5.878906 14 7 12.878906 7 11.5 C 7 10.121094 5.878906 9 4.5 9 Z M 11.5 9 C 10.125 9 9 10.125 9 11.5 C 9 12.875 10.125 14 11.5 14 C 12.875 14 14 12.875 14 11.5 C 14 10.125 12.875 9 11.5 9 Z M 11.5 10 C 11.734375 10 11.949219 10.054688 12.144531 10.148438 C 12.050781 10.242188 12 10.367188 12 10.5 C 12 10.777344 12.222656 11 12.5 11 C 12.632813 11 12.757813 10.949219 12.851563 10.855469 C 12.945313 11.050781 13 11.265625 13 11.5 C 13 11.734375 12.945313 11.949219 12.851563 12.144531 C 12.757813 12.050781 12.632813 12 12.5 12 C 12.222656 12 12 12.222656 12 12.5 C 12 12.632813 12.050781 12.757813 12.144531 12.851563 C 11.949219 12.945313 11.734375 13 11.5 13 C 11.265625 13 11.050781 12.945313 10.855469 12.851563 C 10.949219 12.757813 11 12.632813 11 12.5 C 11 12.222656 10.777344 12 10.5 12 C 10.367188 12 10.242188 12.050781 10.148438 12.144531 C 10.054688 11.949219 10 11.734375 10 11.5 C 10 11.265625 10.054688 11.050781 10.148438 10.855469 C 10.242188 10.949219 10.367188 11 10.5 11 C 10.777344 11 11 10.777344 11 10.5 C 11 10.367188 10.949219 10.242188 10.855469 10.148438 C 11.050781 10.054688 11.265625 10 11.5 10 Z M 11.5 11 C 11.222656 11 11 11.222656 11 11.5 C 11 11.777344 11.222656 12 11.5 12 C 11.777344 12 12 11.777344 12 11.5 C 12 11.222656 11.777344 11 11.5 11 Z"/></svg>