<svg fill="#000000" xmlns="http://www.w3.org/2000/svg"  viewBox="0 0 16 16" width="16px" height="16px"><path d="M 2.5 2 C 1.6773727 2 1 2.6773727 1 3.5 L 1 4 L 1 4.5 L 1 12.5 C 1 13.322627 1.6773727 14 2.5 14 L 13.5 14 C 14.322627 14 15 13.322627 15 12.5 L 15 5.5 C 15 4.6773727 14.322627 4 13.5 4 L 6.7988281 4 L 6.1425781 2.7871094 C 5.8822344 2.302749 5.3755966 2 4.8242188 2 L 2.5 2 z M 2.5 3 L 4.8242188 3 C 5.0068408 3 5.1780624 3.104126 5.2617188 3.2597656 L 5.2636719 3.2597656 L 5.6621094 4 L 2 4 L 2 3.5 C 2 3.2206273 2.2206273 3 2.5 3 z M 2 5 L 13.5 5 C 13.779373 5 14 5.2206273 14 5.5 L 14 12.5 C 14 12.779373 13.779373 13 13.5 13 L 2.5 13 C 2.2206273 13 2 12.779373 2 12.5 L 2 5 z M 8.5 6 C 7.7083336 6 7.0519227 6.3148778 6.6269531 6.7929688 C 6.2019836 7.2710597 6 7.8888889 6 8.5 C 6 8.9858531 6.1344983 9.4718298 6.4003906 9.8925781 L 5.0214844 11.271484 L 5.7285156 11.978516 L 7.1054688 10.601562 C 7.489252 10.846815 7.9595354 11 8.5 11 C 9.2916664 11 9.9480772 10.685122 10.373047 10.207031 C 10.798016 9.7289405 11 9.1111111 11 8.5 C 11 7.8888889 10.798016 7.2710597 10.373047 6.7929688 C 9.9480772 6.3148777 9.2916664 6 8.5 6 z M 8.5 7 C 9.0416663 7 9.3852563 7.1851222 9.6269531 7.4570312 C 9.8686499 7.7289403 10 8.1111111 10 8.5 C 10 8.8888889 9.8686499 9.2710597 9.6269531 9.5429688 C 9.3852563 9.8148777 9.0416663 10 8.5 10 C 7.9583337 10 7.6147437 9.8148777 7.3730469 9.5429688 C 7.1313501 9.2710596 7 8.8888889 7 8.5 C 7 8.1111111 7.1313501 7.7289403 7.3730469 7.4570312 C 7.6147437 7.1851223 7.9583337 7 8.5 7 z"/></svg>