<svg fill="#000000" xmlns="http://www.w3.org/2000/svg"  viewBox="0 0 16 16" width="16px" height="16px"><path d="M 2.5 2 C 1.675781 2 1 2.675781 1 3.5 L 1 11.5 C 1 12.324219 1.675781 13 2.5 13 L 4 13 L 4 15.433594 L 7.652344 13 L 13.5 13 C 14.324219 13 15 12.324219 15 11.5 L 15 3.5 C 15 2.675781 14.324219 2 13.5 2 Z M 2.5 3 L 13.5 3 C 13.78125 3 14 3.21875 14 3.5 L 14 11.5 C 14 11.78125 13.78125 12 13.5 12 L 7.347656 12 L 5 13.566406 L 5 12 L 2.5 12 C 2.21875 12 2 11.78125 2 11.5 L 2 3.5 C 2 3.21875 2.21875 3 2.5 3 Z M 3.5 4 C 3.222656 4 3 4.222656 3 4.5 L 3 9 L 4 9 L 4 8 L 6 8 L 6 9 L 7 9 L 7 5.785156 C 7 5.640625 6.9375 5.5 6.828125 5.40625 L 5.328125 4.121094 C 5.234375 4.042969 5.121094 4 5 4 Z M 4 5 L 4.8125 5 L 6 6.015625 L 6 7 L 4 7 Z M 10 6 L 10 7 L 8 7 L 8 8 L 10.875 8 C 10.769531 8.1875 10.648438 8.390625 10.496094 8.59375 C 10.425781 8.691406 10.335938 8.777344 10.257813 8.871094 C 9.902344 8.542969 9.632813 8.25 9.632813 8.25 L 8.867188 8.890625 C 8.867188 8.890625 9.144531 9.195313 9.515625 9.546875 C 9.097656 9.816406 8.601563 10 8 10 L 8 11 C 8.933594 11 9.699219 10.660156 10.300781 10.203125 C 10.878906 10.625 11.582031 11 12.375 11 L 12.375 10 C 11.972656 10 11.484375 9.78125 11.035156 9.492188 C 11.121094 9.390625 11.222656 9.292969 11.296875 9.191406 C 11.621094 8.757813 11.847656 8.328125 12 8 L 13 8 L 13 7 L 11 7 L 11 6 Z"/></svg>