<svg xmlns="http://www.w3.org/2000/svg"  viewBox="0 0 16 16" width="16px" height="16px"><path fill="#f2faff" d="M0.5 5.5H15.5V10.5H0.5z"/><path fill="#a3b7cc" d="M15,6v4H1V6H15 M16,5H0v6h16V5L16,5z"/><path fill="#f78f8f" d="M0.5 2.5H15.5V5.5H0.5z"/><path fill="#c74343" d="M15,3v2H1V3H15 M16,2H0v4h16V2L16,2z"/><path fill="#8bb7f0" d="M0.5 10.5H15.5V13.5H0.5z"/><path fill="#4e7ab5" d="M15,11v2H1v-2H15 M16,10H0v4h16V10L16,10z"/><g><path fill="#f78f8f" d="M8,10.5c-0.5,0-1.5-0.648-1.5-1.5V6.5h3V9C9.5,9.852,8.5,10.5,8,10.5z"/><path fill="#c74343" d="M9,7v2c0,0.525-0.72,1-1,1S7,9.525,7,9V7H9 M10,6H6v3c0,1.125,1.219,2,2,2s2-0.875,2-2V6L10,6z"/></g><g><path fill="#8bb7f0" d="M6.5 5.5H9.5V6.5H6.5z"/><path fill="#4e7ab5" d="M10 5L6 5 6 7 10 7 10 5z"/></g></svg>