<svg xmlns="http://www.w3.org/2000/svg"  viewBox="0 0 16 16" width="16px" height="16px"><path fill="#f78f8f" d="M0.5 2.5H15.5V13.5H0.5z"/><path fill="#c74343" d="M15,3v10H1V3H15 M16,2H0v12h16V2L16,2z"/><path fill="#fff" d="M7.422 7.523L7.418 6.5 8.022 7.325 8.994 7.007 8.395 7.836 9 8.661 8.026 8.349 7.427 9.178 7.424 8.155 6.45 7.843z"/><path fill="#fff" d="M6.882,10.647C5.42,10.647,4.235,9.461,4.235,8c0-1.463,1.185-2.647,2.647-2.647	c0.238,0,0.467,0.034,0.686,0.092C7.111,5.164,6.575,5,6,5C4.343,5,3,6.343,3,8c0,1.657,1.343,3,3,3	c0.575,0,1.111-0.166,1.568-0.447C7.349,10.613,7.12,10.647,6.882,10.647z"/></svg>