<svg xmlns="http://www.w3.org/2000/svg"  viewBox="0 0 16 16" width="16px" height="16px"><path fill="#f78f8f" d="M4.5 2.5H15.5V13.5H4.5z"/><path fill="#c74343" d="M15,3v10H5V3H15 M16,2H4v12h12V2L16,2z"/><path fill="#99c99e" d="M0.5 2.5H5.5V13.5H0.5z"/><path fill="#5e9c76" d="M5,3v10H1V3H5 M6,2H0v12h6V2L6,2z"/><path fill="#ffeea3" d="M6,5C4.346,5,3,6.345,3,8s1.346,3,3,3s3-1.345,3-3S7.654,5,6,5z"/><g><path fill="#f78f8f" d="M6,9.5C5.5,9.5,4.5,8.852,4.5,8V6.5h3V8C7.5,8.852,6.5,9.5,6,9.5z"/><path fill="#c74343" d="M7,7v1c0,0.525-0.72,1-1,1S5,8.525,5,8V7H7 M8,6H4v2c0,1.125,1.219,2,2,2s2-0.875,2-2V6L8,6z"/></g></svg>