<svg xmlns="http://www.w3.org/2000/svg"  viewBox="0 0 16 16" width="16px" height="16px"><path fill="#f78f8f" d="M0.5 2.5H15.5V13.5H0.5z"/><path fill="#c74343" d="M15,3v10H1V3H15 M16,2H0v12h16V2L16,2z"/><path fill="#ffeea3" d="M6.5 4A.5.5 0 1 0 6.5 5 .5.5 0 1 0 6.5 4zM6.5 9A.5.5 0 1 0 6.5 10 .5.5 0 1 0 6.5 9zM8.5 5A.5.5 0 1 0 8.5 6 .5.5 0 1 0 8.5 5zM8.5 8A.5.5 0 1 0 8.5 9 .5.5 0 1 0 8.5 8z"/><g><path fill="#ffeea3" d="M3.5 4L4.09 6 6 6 4.455 7.09 5.045 9 3.5 7.819 1.955 9 2.545 7.09 1 6 2.91 6z"/></g></svg>