<svg xmlns="http://www.w3.org/2000/svg"  viewBox="0 0 16 16" width="16px" height="16px"><path fill="#f2faff" d="M0.5 2.5H15.5V13.5H0.5z"/><path fill="#a3b7cc" d="M15,3v10H1V3H15 M16,2H0v12h16V2L16,2z"/><path fill="#f78f8f" d="M0.5 2.5H15.5V7.5H0.5z"/><path fill="#c74343" d="M15,3v4H1V3H15 M16,2H0v6h16V2L16,2z"/><path fill="#8bb7f0" d="M0.5 6.5H15.5V9.5H0.5z"/><path fill="#4e7ab5" d="M15,7v2H1V7H15 M16,6H0v4h16V6L16,6z"/><g><path fill="#f78f8f" d="M6,10.5c-0.5,0-1.5-0.648-1.5-1.5V6.5h3V9C7.5,9.852,6.5,10.5,6,10.5z"/><path fill="#c74343" d="M7,7v2c0,0.525-0.72,1-1,1S5,9.525,5,9V7H7 M8,6H4v3c0,1.125,1.219,2,2,2s2-0.875,2-2V6L8,6z"/></g><g><path fill="#ffc49c" d="M4.5 5.5H7.5V6.5H4.5z"/><path fill="#b08159" d="M8 5L4 5 4 7 8 7 8 5z"/></g></svg>