<svg xmlns="http://www.w3.org/2000/svg"  viewBox="0 0 16 16" width="16px" height="16px"><path fill="#8bb7f0" d="M0.5 2.5H15.5V12.5H0.5z"/><path fill="#4e7ab5" d="M15,3l0,2.667l0,3.667V12H1l0-1.75l0-5.5V3H15 M16,2H0v2.75h0v5.5h0V13h16V9.333h0V5.667h0V2L16,2z"/><path fill="#f2faff" d="M1 10H15V11H1zM1 8H15V9H1zM1 6H15V7H1zM1 4H15V5H1z"/><path fill="#8bb7f0" d="M6 4.667L6 3 1 3 1 4.25 1 4.25 1 6.75 1 6.75 1 8 6 8 6 6.333 6 6.333 6 4.667z"/><path fill="#f2faff" d="M3 3H4V8H3z"/><g><path fill="#f2faff" d="M1 5H6V6H1z"/></g></svg>