<svg xmlns="http://www.w3.org/2000/svg"  viewBox="0 0 16 16" width="16px" height="16px"><path fill="#ffeea3" d="M0.5 4.5H15.5V11.5H0.5z"/><path fill="#f5c276" d="M15,5v6H1V5H15 M16,4H0v8h16V4L16,4z"/><path fill="#f78f8f" d="M0.5 2.5H15.5V4.5H0.5z"/><path fill="#c74343" d="M15,3v1H1V3H15 M16,2H0v3h16V2L16,2z"/><g><path fill="#f78f8f" d="M0.5 11.5H15.5V13.5H0.5z"/><path fill="#c74343" d="M15,12v1H1v-1H15 M16,11H0v3h16V11L16,11z"/></g><g><path fill="#f78f8f" d="M4.507,9.5c-0.732,0-0.981-0.245-1.012-0.391L3.499,6.5H5.5v2.681C5.476,9.26,5.233,9.5,4.507,9.5z"/><path fill="#c74343" d="M5,7v1.933C4.923,8.962,4.772,9,4.507,9C4.231,9,4.077,8.959,4,8.928V7H5 M6,6H3v3.181 C3,9.181,3.076,10,4.507,10C5.938,10,6,9.181,6,9.181V6L6,6z"/></g></svg>