<svg xmlns="http://www.w3.org/2000/svg"  viewBox="0 0 16 16" width="16px" height="16px"><path fill="#f78f8f" d="M0.499 2.49H15.499V12.49H0.499z"/><path fill="#c74343" d="M14.999,2.99v9h-14v-9H14.999 M15.999,1.99h-16v11h16V1.99L15.999,1.99z"/><path fill="#fff" d="M6 2.99H15V3.99H6zM7 4.99H15V5.99H7zM1 8.99H15V9.99H1zM1 6.99H15V7.99H1zM1 10.99H15V11.99H1z"/><path fill="#8bb7f0" d="M0.5 2.5H6.5V8.49H0.5z"/><path fill="#4e7ab5" d="M6,3v4.99H1V3H6 M7,2H0v6.99h7V2L7,2z"/><path fill="#fff" d="M1 3H2V4H1zM3 3H4V4H3zM5 3H6V4H5zM2 4H3V5H2zM4 4H5V5H4zM1 5H2V6H1zM3 5H4V6H3zM5 5H6V6H5zM2 6H3V7H2zM4 6H5V7H4zM1 7H2V8H1zM3 7H4V8H3zM5 7H6V8H5z"/></svg>