<svg fill="#000000" xmlns="http://www.w3.org/2000/svg"  viewBox="0 0 16 16" width="16px" height="16px"><path d="M 3.5 2 C 2.1252104 2 1 3.1252104 1 4.5 C 1 5.7029409 1.8636261 6.7150505 3 6.9492188 L 3 10 L 1 10 L 1 11 L 3 11 L 3 12 L 1 12 L 1 13 L 4 13 L 4 6.9492188 C 4 6.9492188 4.0019531 6.9492188 4.0019531 6.9492188 C 5.1383271 6.7150505 6 5.7029409 6 4.5 C 6 3.1252104 4.8747896 2 3.5 2 z M 3.5 3 C 4.3343494 3 5 3.6656506 5 4.5 C 5 5.3343494 4.3343494 6 3.5 6 C 2.6656506 6 2 5.3343494 2 4.5 C 2 3.6656506 2.6656506 3 3.5 3 z M 7 4 L 7 4.5 L 7 7 L 15 7 L 15 4 L 7 4 z M 8 5 L 14 5 L 14 6 L 8 6 L 8 5 z M 7 8 L 7 8.5 L 7 11 L 15 11 L 15 8 L 7 8 z M 8 9 L 14 9 L 14 10 L 8 10 L 8 9 z"/></svg>