<svg fill="#000000" xmlns="http://www.w3.org/2000/svg"  viewBox="0 0 16 16" width="16px" height="16px"><path d="M 6 1 C 5.453125 1 5 1.453125 5 2 L 5 5 C 5 5.546875 5.453125 6 6 6 L 6.042969 6 L 3.042969 9 L 2 9 C 1.453125 9 1 9.453125 1 10 L 1 13 C 1 13.546875 1.453125 14 2 14 L 5 14 C 5.546875 14 6 13.546875 6 13 L 6 10 C 6 9.453125 5.546875 9 5 9 L 4.457031 9 L 7.457031 6 L 7.542969 6 L 10.542969 9 L 10 9 C 9.453125 9 9 9.453125 9 10 L 9 13 C 9 13.546875 9.453125 14 10 14 L 13 14 C 13.546875 14 14 13.546875 14 13 L 14 10 C 14 9.453125 13.546875 9 13 9 L 11.957031 9 L 8.957031 6 L 9 6 C 9.546875 6 10 5.546875 10 5 L 10 2 C 10 1.453125 9.546875 1 9 1 Z M 6 2 L 9 2 L 9 5 L 6 5 Z M 2 10 L 5 10 L 5 13 L 2 13 Z M 10 10 L 13 10 L 13 13 L 10 13 Z"/></svg>