<svg fill="#000000" xmlns="http://www.w3.org/2000/svg"  viewBox="0 0 16 16" width="16px" height="16px"><path d="M 7.5 1 C 3.914063 1 1 3.914063 1 7.5 C 1 11.085938 3.914063 14 7.5 14 C 8.878906 14 10.15625 13.5625 11.207031 12.828125 C 11.382813 12.703125 11.546875 12.574219 11.707031 12.4375 C 11.710938 12.4375 11.710938 12.4375 11.710938 12.4375 C 11.710938 12.433594 11.710938 12.433594 11.714844 12.433594 C 11.859375 12.308594 12 12.175781 12.136719 12.035156 C 12.15625 12.015625 12.175781 11.996094 12.195313 11.976563 C 12.242188 11.929688 12.292969 11.882813 12.335938 11.832031 C 12.359375 11.804688 12.382813 11.773438 12.402344 11.742188 C 12.605469 11.507813 12.800781 11.261719 12.96875 11 L 11.738281 11 C 11.625 11.136719 11.5 11.261719 11.375 11.386719 C 11.316406 11.445313 11.257813 11.503906 11.199219 11.5625 C 11.195313 11.5625 11.195313 11.566406 11.191406 11.566406 C 11.035156 11.710938 10.867188 11.84375 10.699219 11.964844 C 9.796875 12.613281 8.699219 13 7.5 13 C 4.457031 13 2 10.542969 2 7.5 C 2 4.457031 4.457031 2 7.5 2 C 8.695313 2 9.796875 2.382813 10.695313 3.03125 C 10.875 3.160156 11.046875 3.300781 11.210938 3.449219 C 11.253906 3.488281 11.289063 3.527344 11.328125 3.570313 C 11.472656 3.707031 11.613281 3.847656 11.738281 4 L 11.890625 4 C 11.945313 4.007813 12 4.007813 12.050781 4 L 12.96875 4 C 12.796875 3.734375 12.601563 3.488281 12.398438 3.25 C 12.378906 3.222656 12.359375 3.191406 12.335938 3.164063 C 12.308594 3.132813 12.273438 3.105469 12.246094 3.074219 C 12.171875 2.996094 12.09375 2.921875 12.015625 2.84375 C 11.941406 2.773438 11.871094 2.703125 11.796875 2.636719 C 11.710938 2.558594 11.621094 2.488281 11.53125 2.414063 C 11.445313 2.351563 11.367188 2.28125 11.28125 2.21875 C 11.257813 2.207031 11.242188 2.191406 11.21875 2.175781 L 11.21875 2.179688 C 10.164063 1.441406 8.882813 1 7.5 1 Z M 12 5 L 12 7 L 5 7 L 5 8 L 12 8 L 12 10 L 14.5 7.5 Z"/></svg>