<svg fill="#000000" xmlns="http://www.w3.org/2000/svg"  viewBox="0 0 16 16" width="16px" height="16px"><path d="M 8 3 C 6.347656 3 5 4.347656 5 6 C 5 6.960938 5.464844 7.808594 6.171875 8.359375 C 5.746094 8.527344 5.355469 8.757813 4.996094 9.03125 C 4.996094 9.019531 5 9.011719 5 9 C 5 7.902344 4.097656 7 3 7 C 1.902344 7 1 7.902344 1 9 C 1 9.535156 1.21875 10.023438 1.5625 10.382813 C 0.636719 10.894531 0 11.871094 0 13 L 1 13 C 1 11.890625 1.890625 11 3 11 C 3.140625 11 3.273438 11.015625 3.402344 11.042969 C 3.144531 11.644531 3 12.304688 3 13 L 4 13 C 4 10.785156 5.785156 9 8 9 C 10.214844 9 12 10.785156 12 13 L 13 13 C 13 12.308594 12.855469 11.648438 12.597656 11.046875 C 12.730469 11.019531 12.863281 11 13 11 C 14.109375 11 15 11.890625 15 13 L 16 13 C 16 11.871094 15.363281 10.894531 14.4375 10.382813 C 14.78125 10.023438 15 9.535156 15 9 C 15 7.902344 14.097656 7 13 7 C 11.902344 7 11 7.902344 11 9 C 11 9.011719 11.003906 9.019531 11.003906 9.03125 C 10.644531 8.757813 10.253906 8.527344 9.828125 8.359375 C 10.535156 7.808594 11 6.960938 11 6 C 11 4.347656 9.652344 3 8 3 Z M 8 4 C 9.109375 4 10 4.890625 10 6 C 10 7.109375 9.109375 8 8 8 C 6.890625 8 6 7.109375 6 6 C 6 4.890625 6.890625 4 8 4 Z M 3 8 C 3.558594 8 4 8.441406 4 9 C 4 9.558594 3.558594 10 3 10 C 2.441406 10 2 9.558594 2 9 C 2 8.441406 2.441406 8 3 8 Z M 13 8 C 13.558594 8 14 8.441406 14 9 C 14 9.558594 13.558594 10 13 10 C 12.441406 10 12 9.558594 12 9 C 12 8.441406 12.441406 8 13 8 Z"/></svg>